<?xml version="1.0" standalone="no"?>
<!DOCTYPE svg PUBLIC "-//W3C//DTD SVG 20010904//EN"
 "http://www.w3.org/TR/2001/REC-SVG-20010904/DTD/svg10.dtd">
<svg version="1.0" xmlns="http://www.w3.org/2000/svg"
 width="716.000000pt" height="716.000000pt" viewBox="0 0 716.000000 716.000000"
 preserveAspectRatio="xMidYMid meet">
<metadata>
Created by potrace 1.14, written by Peter Selinger 2001-2017
</metadata>
<g transform="translate(0.000000,716.000000) scale(0.100000,-0.100000)"
fill="#000000" stroke="none">
<path d="M3405 6710 c-369 -17 -736 -99 -1075 -242 -399 -169 -741 -394 -1039
-683 -237 -230 -416 -474 -585 -796 -165 -317 -258 -606 -325 -1014 -71 -436
-40 -903 89 -1320 47 -154 159 -417 238 -560 135 -245 338 -518 537 -724 486
-503 1182 -848 1945 -966 147 -22 493 -31 660 -16 429 38 938 191 1316 396
225 121 501 318 685 487 208 192 450 496 591 743 210 368 319 695 390 1170 17
119 18 569 0 685 -31 205 -107 533 -155 675 -131 382 -345 749 -630 1084 -466
547 -1196 946 -1922 1050 -136 20 -438 42 -520 39 -22 -1 -112 -4 -200 -8z
m625 -224 c445 -55 874 -216 1260 -473 189 -126 309 -221 464 -370 l109 -104
-40 -42 c-53 -54 -144 -184 -152 -216 -4 -14 -11 -26 -17 -28 -5 -2 -41 20
-79 48 -155 113 -187 120 -258 55 -58 -53 -49 -111 27 -176 40 -35 159 -110
174 -110 20 0 14 -18 -28 -95 -46 -84 -112 -254 -130 -337 -16 -69 -15 -69
-140 -31 -79 23 -94 25 -130 14 -22 -6 -56 -26 -75 -42 -30 -26 -35 -38 -35
-73 0 -34 6 -48 33 -74 27 -26 53 -37 145 -60 125 -30 120 -25 97 -116 -26
-99 -44 -218 -51 -339 l-7 -117 -109 0 c-121 0 -148 -9 -192 -60 -41 -49 -29
-113 30 -159 24 -19 40 -21 144 -21 l118 0 6 -82 c3 -46 8 -132 11 -193 3 -60
14 -153 25 -205 10 -52 15 -98 12 -101 -4 -4 -53 -21 -110 -38 -132 -41 -175
-75 -176 -142 -1 -56 23 -96 71 -115 30 -13 41 -13 87 0 28 9 79 29 111 45 33
17 60 29 60 28 4 -6 49 -148 80 -250 19 -64 53 -154 75 -199 38 -80 42 -98 16
-98 -30 0 -214 -100 -239 -130 -33 -39 -36 -89 -7 -135 21 -33 73 -65 107 -65
21 0 96 38 169 86 85 55 95 55 128 -13 66 -135 242 -363 269 -346 30 18 -43
-64 -144 -162 -114 -111 -307 -262 -471 -369 -180 -117 -445 -244 -668 -319
-505 -170 -939 -207 -1490 -126 -467 68 -1005 303 -1423 621 -108 82 -298 249
-335 294 l-29 35 46 48 c25 27 62 75 81 107 18 32 50 80 71 106 20 26 49 72
65 104 16 31 35 59 42 62 7 2 25 -4 40 -15 117 -86 165 -113 202 -113 85 0
130 37 130 108 0 74 -21 92 -242 209 l-27 14 21 52 c44 107 119 344 130 412 6
39 12 71 13 73 1 1 40 -16 87 -38 141 -68 197 -64 244 16 49 83 13 138 -121
188 -156 59 -157 59 -151 81 3 11 10 61 16 110 24 202 32 313 27 370 -3 33 -3
65 -1 70 3 6 51 9 127 7 123 -4 123 -4 156 24 78 65 70 153 -16 198 -24 12
-60 16 -148 16 l-115 0 0 58 c0 31 -6 98 -14 147 -8 50 -18 119 -21 155 -4 36
-14 85 -21 110 -8 25 -14 50 -14 57 0 9 72 35 195 70 39 11 63 35 80 76 22 54
13 99 -26 131 -56 47 -96 46 -225 -6 -42 -16 -79 -26 -84 -22 -4 5 -22 54 -40
109 -39 119 -104 267 -139 314 -23 32 -24 35 -7 45 10 6 66 47 124 91 120 90
151 133 136 187 -14 47 -73 90 -132 96 -49 4 -49 4 -145 -77 l-95 -80 -66 97
c-35 53 -84 120 -106 149 l-42 52 73 81 c87 94 194 184 374 313 178 127 254
173 443 265 327 161 604 242 982 287 157 19 617 13 800 -9z m-2730 -1026 c0
-6 -18 -27 -40 -49 l-39 -38 44 -64 c24 -35 62 -90 85 -123 29 -42 37 -62 30
-71 -6 -7 -47 -34 -93 -60 -117 -68 -147 -99 -147 -149 0 -46 26 -93 62 -112
13 -8 44 -13 70 -14 38 0 54 6 90 35 41 33 137 95 148 95 7 0 14 -19 92 -239
70 -199 71 -188 -32 -218 -174 -50 -236 -143 -156 -231 32 -34 38 -37 86 -35
51 1 195 46 206 64 19 31 32 -33 59 -284 23 -210 35 -187 -100 -187 l-115 0
-39 -35 c-46 -42 -56 -73 -37 -118 29 -70 45 -77 184 -77 l125 0 -6 -152 c-6
-136 -20 -284 -32 -345 -5 -21 -6 -21 -92 13 -116 46 -159 51 -201 25 -48 -30
-68 -80 -54 -129 16 -54 45 -76 132 -101 128 -38 160 -52 160 -72 0 -21 -90
-322 -121 -404 -11 -30 -25 -55 -30 -55 -5 0 -37 21 -71 46 -80 59 -130 84
-165 84 -34 0 -82 -30 -99 -62 -18 -31 -17 -89 1 -115 15 -22 23 -27 162 -107
96 -55 97 -36 -9 -195 -38 -57 -79 -124 -92 -150 -13 -25 -37 -58 -53 -74 -35
-33 -28 -39 -125 103 -157 229 -288 482 -351 675 -20 61 -47 140 -61 176 -35
94 -102 421 -117 572 -33 346 50 962 172 1274 64 166 177 407 215 458 12 17
34 53 48 80 41 78 113 175 210 279 48 53 89 96 92 96 2 0 4 -5 4 -10z m4726
-123 c11 -18 63 -95 115 -172 151 -225 274 -480 353 -732 170 -542 189 -1042
61 -1578 -62 -259 -100 -363 -212 -590 -110 -222 -318 -540 -336 -514 -2 2
-26 33 -53 69 -101 131 -204 301 -187 308 35 13 221 134 236 154 10 14 21 43
24 66 5 39 3 45 -35 82 -36 36 -45 40 -89 40 -53 0 -92 -20 -164 -85 -34 -30
-76 -52 -84 -43 -9 9 -85 222 -105 293 -12 44 -31 97 -41 117 -28 55 -25 78 9
78 23 0 157 43 235 75 26 11 47 58 47 108 0 35 -6 49 -29 71 -45 43 -92 45
-206 5 -77 -27 -97 -31 -104 -21 -11 18 -65 490 -57 498 1 0 49 -3 109 -8 122
-9 163 1 193 47 27 41 24 108 -6 140 -44 47 -71 55 -182 55 l-104 0 8 103 c5
56 17 145 27 197 11 52 22 114 26 138 4 23 8 42 9 42 1 0 42 -18 91 -40 116
-51 169 -54 219 -9 60 52 57 118 -8 178 -14 13 -71 40 -128 60 -101 36 -103
37 -100 66 2 17 17 68 34 115 17 47 39 117 50 155 22 74 51 125 72 125 7 0 51
-30 97 -66 103 -81 118 -88 165 -80 91 18 126 119 64 190 -17 19 -73 62 -125
96 -100 64 -105 73 -60 110 9 8 26 32 37 54 21 41 96 136 107 136 3 -1 15 -15
27 -33z"/>
<path d="M2378 5873 c6 -2 18 -2 25 0 6 3 1 5 -13 5 -14 0 -19 -2 -12 -5z"/>
<path d="M3503 5635 c-152 -47 -232 -162 -242 -348 l-6 -98 -105 -35 c-124
-41 -212 -91 -299 -169 -222 -198 -331 -428 -331 -701 0 -389 168 -673 496
-841 101 -52 288 -127 516 -206 151 -53 206 -90 238 -157 65 -139 -74 -261
-248 -216 -106 27 -168 80 -225 191 -31 61 -58 88 -119 115 -50 22 -121 28
-204 16 -111 -16 -384 -196 -440 -291 -44 -76 -38 -134 30 -270 30 -61 75
-138 99 -171 42 -57 157 -166 223 -212 55 -38 226 -119 300 -143 l72 -22 4
-101 c3 -92 7 -108 41 -177 68 -142 173 -207 316 -197 126 9 230 80 283 193
24 53 29 79 35 176 l6 114 76 29 c298 112 477 280 605 570 71 160 88 283 66
463 -29 230 -97 379 -249 545 -131 144 -277 219 -760 393 -73 27 -152 61 -174
76 -55 37 -87 92 -87 149 0 40 5 51 38 82 47 45 65 54 124 63 104 16 229 -46
312 -154 79 -102 175 -151 297 -151 136 0 315 114 421 268 64 93 48 213 -47
357 -57 85 -188 214 -278 273 -75 49 -266 132 -304 132 -35 0 -40 14 -45 121
-6 127 -26 178 -103 256 -42 41 -65 55 -120 72 -76 24 -150 26 -212 6z m167
-220 c26 -19 51 -43 56 -53 4 -9 12 -83 19 -164 6 -81 14 -150 18 -154 3 -4
47 -17 97 -30 263 -68 491 -235 555 -406 23 -61 15 -88 -43 -150 -53 -56 -80
-73 -137 -83 -100 -17 -158 5 -219 83 -67 87 -104 117 -190 158 -68 32 -91 38
-165 42 -206 9 -365 -75 -421 -224 -25 -68 -26 -140 -2 -225 34 -124 90 -193
200 -248 32 -16 152 -62 267 -101 454 -156 603 -260 716 -498 52 -107 71 -198
73 -342 1 -95 -3 -128 -22 -190 -69 -219 -211 -384 -416 -484 -108 -52 -174
-75 -238 -83 -78 -9 -77 -7 -79 -193 -1 -105 -6 -176 -14 -195 -19 -48 -70
-85 -116 -85 -21 0 -39 5 -39 11 0 5 -4 8 -9 5 -5 -3 -27 12 -49 34 -46 46
-47 50 -51 247 -1 76 -7 145 -11 153 -6 11 -37 20 -95 28 -89 13 -165 37 -165
53 0 5 -3 8 -7 7 -42 -10 -215 104 -309 204 -91 97 -153 204 -154 265 0 24 8
39 38 63 50 42 237 132 288 138 l41 4 47 -77 c79 -125 176 -210 295 -256 43
-17 78 -22 156 -23 96 -1 103 0 177 37 99 48 165 113 208 201 30 63 32 75 28
142 -6 96 -43 170 -123 250 -78 78 -110 95 -360 184 -95 34 -249 89 -252 91
-2 1 -7 2 -11 3 -4 0 -46 19 -92 40 -200 94 -341 245 -406 436 -16 45 -19 84
-19 220 1 148 3 173 26 247 36 115 80 184 189 293 129 130 248 192 424 220 58
10 76 17 77 29 8 245 12 297 25 323 17 32 97 88 127 88 11 0 41 -16 67 -35z"/>
</g>
</svg>
